# xmcd CD database file
#
# Track frame offsets:
#	150
#	11776
#	25736
#	35044
#	47379
#	63428
#	77306
#	97883
#	106529
#	122223
#	139013
#	150429
#	166823
#	180632
#	194129
#	206529
#
# Disc length: 2820 seconds
#
# Revision: 0
# Processed by: cddbd v1.5.2PL0 Copyright (c) Steve Scherf et al.
# Submitted via: Feurio! 1.68 - http://www.feurio.com
#
DISCID=c30b0210
DTITLE=Dixie Gunworks - Till the cows come home
DYEAR=1995
DGENRE=Country/Rockabilly
TTITLE0=Eastbound and down
TTITLE1=West Virginia
TTITLE2=Big ball in cowtown
TTITLE3=Moonshine Bourbon
TTITLE4=Skinny cat
TTITLE5=Fast movin´ train
TTITLE6=Kentucky graveyard
TTITLE7=Wild women
TTITLE8=Married man
TTITLE9=Dixie Gunworks
TTITLE10=Eye of the Taiga
TTITLE11=En la frontera
TTITLE12=Rawhide
TTITLE13=Somebody pissed in my beer
TTITLE14=Bad and dead
TTITLE15=Bonus: Instrumental
EXTD=
EXTT0=
EXTT1=
EXTT2=
EXTT3=
EXTT4=
EXTT5=
EXTT6=
EXTT7=
EXTT8=
EXTT9=
EXTT10=
EXTT11=
EXTT12=
EXTT13=
EXTT14=
EXTT15=
PLAYORDER=
